<svg xmlns="http://www.w3.org/2000/svg" width="430" height="430" fill="none" viewBox="0 0 430 430"><g fill-rule="evenodd" clip-rule="evenodd"><path fill="url(#-7dSRr4K5ta)" d="M150.163 120.881c17.903-17.903 41.38-26.857 64.837-26.857s46.934 8.954 64.838 26.857c35.665 35.665 35.808 93.4.428 129.243l-.102.104-.108.099c-25.02 22.993-43.597 52.872-52.732 86.619l-.054.201-.069.198c-1.75 5.044-6.543 8.679-12.201 8.679s-10.451-3.635-12.201-8.679l-.069-.198-.054-.201c-9.134-33.747-27.711-63.626-52.732-86.619l-.108-.099-.102-.104c-35.379-35.843-35.236-93.578.429-129.243m10.698 6.354 30.503 25.867q.295-.215.595-.424l37.688-45.304a80 80 0 0 0-14.647-1.35c-19.451 0-38.884 7.07-54.139 21.211m81.505-16.387-28.798 34.618q.713-.025 1.432-.025c19.862 0 36.366 14.376 39.674 33.29l28.622-34.12a80 80 0 0 0-11.944-15.245c-8.487-8.487-18.409-14.659-28.986-18.518m46.742 45.505-36.294 43.267c-3.25 8.838-9.51 16.222-17.538 20.908l-47.067 56.109a193.6 193.6 0 0 1 25.969 56.876.915.915 0 0 0 1.644 0c9.756-35.817 29.483-67.511 56.004-91.92 22.78-23.16 28.541-56.786 17.282-85.24M180.992 266.569l34.034-40.573H215c-20.232 0-36.981-14.918-39.845-34.355l-28.793 34.611a79.8 79.8 0 0 0 11.812 15.341 195.6 195.6 0 0 1 22.818 24.976m-40.371-52.179 37.682-45.296a40.3 40.3 0 0 1 4.472-7.542l-30.094-25.519c-17.99 22.507-22.01 52.503-12.06 78.357M215 157.441c-15.617 0-28.277 12.66-28.277 28.277s12.66 28.278 28.277 28.278 28.278-12.661 28.278-28.278-12.661-28.277-28.278-28.277"/><path fill="url(#UCECgPMWvAb)" d="M41.5 215c0-95.821 77.679-173.5 173.5-173.5S388.5 119.179 388.5 215 310.821 388.5 215 388.5 41.5 310.821 41.5 215M215 53.5c-89.194 0-161.5 72.306-161.5 161.5S125.806 376.5 215 376.5 376.5 304.194 376.5 215 304.194 53.5 215 53.5"/></g><defs><linearGradient id="-7dSRr4K5ta" x1="155.012" x2="340.193" y1="118.561" y2="327.144" gradientUnits="userSpaceOnUse"><stop stop-color="#e88c30"/><stop offset="1" stop-color="#eeca66"/></linearGradient><linearGradient id="UCECgPMWvAb" x1="155.012" x2="340.193" y1="118.561" y2="327.144" gradientUnits="userSpaceOnUse"><stop stop-color="#e88c30"/><stop offset="1" stop-color="#eeca66"/></linearGradient></defs></svg>